# xmcd
#
# Track frame offsets:
#	150
#	16465
#	31340
#	45727
#	64402
#	76225
#	90987
#	108605
#	124252
#	142827
#	156710
#	168490
#
# Disc length: 2394 seconds
#
# Revision: 1
# Processed by: cddbd v1.5.2PL0 Copyright (c) Steve Scherf et al.
# Submitted via: audiograbber 1.82.02
#
DISCID=9f09580c
DTITLE=Brian Letton - A Song For Us All
DYEAR=2000
DGENRE=Country
TTITLE0=Only In Dreams
TTITLE1=You're The One On My Mind
TTITLE2=Toy The Drum
TTITLE3=Dingo
TTITLE4=Silent Sound Of Nothing
TTITLE5=Truckin' Til My Dyin Days
TTITLE6=The Grass Is Always Greener
TTITLE7=The Old House On The Hill
TTITLE8=A Song For Mum
TTITLE9=Sue's Gotta Be Emu Export
TTITLE10=Hand In Hand
TTITLE11=I'll Get There In The End
EXTD=
EXTT0=
EXTT1=
EXTT2=
EXTT3=
EXTT4=
EXTT5=
EXTT6=
EXTT7=
EXTT8=
EXTT9=
EXTT10=
EXTT11=
PLAYORDER=
